<mxfile host="drawio-plugin" modified="2022-05-27T17:23:09.014Z" agent="5.0 (Macintosh; Intel Mac OS X 12_4_0) AppleWebKit/537.36 (KHTML, like Gecko) Chrome/89.0.4389.114 Safari/537.36" etag="8BTlFIpfPIHESHadgPsl" version="15.5.4" type="embed"><diagram id="QTFXfntfbXSL0iPpdXbK" name="Page-1"><mxGraphModel dx="2293" dy="1274" grid="1" gridSize="10" guides="1" tooltips="1" connect="1" arrows="1" fold="1" page="1" pageScale="1" pageWidth="827" pageHeight="1169" background="none" math="0" shadow="0"><root><mxCell id="0"/><mxCell id="1" parent="0"/><mxCell id="VvRKIW2N7BzmrSXv_j9w-1" value="用户模块" style="rounded=0;whiteSpace=wrap;html=1;fontSize=18;shadow=0;fillColor=#0050ef;fontColor=#ffffff;strokeColor=#001DBC;" parent="1" vertex="1"><mxGeometry x="200" y="180" width="120" height="60" as="geometry"/></mxCell><mxCell id="3" value="博客发布模块" style="rounded=0;whiteSpace=wrap;html=1;fontSize=18;shadow=0;fillColor=#a20025;fontColor=#ffffff;strokeColor=#6F0000;" vertex="1" parent="1"><mxGeometry x="415" y="179" width="120" height="60" as="geometry"/></mxCell><mxCell id="16" value="V1" style="rounded=0;whiteSpace=wrap;html=1;fontSize=18;shadow=0;" vertex="1" parent="1"><mxGeometry x="71" y="180" width="30" height="59" as="geometry"/></mxCell><mxCell id="2" value="蜉蝣能力系统" style="rounded=0;whiteSpace=wrap;html=1;fontSize=18;" vertex="1" parent="1"><mxGeometry x="71" y="70" width="686" height="50" as="geometry"/></mxCell><mxCell id="20" value="博客展示模块" style="rounded=0;whiteSpace=wrap;html=1;fontSize=18;shadow=0;fillColor=#a20025;fontColor=#ffffff;strokeColor=#6F0000;" vertex="1" parent="1"><mxGeometry x="637" y="179" width="120" height="60" as="geometry"/></mxCell></root></mxGraphModel></diagram></mxfile>